<?xml version="1.0" encoding="UTF-8" standalone="no"?>
<!-- Created with Inkscape (http://www.inkscape.org/) -->

<svg
   width="119.90124mm"
   height="174.55292mm"
   viewBox="0 0 119.90124 174.55292"
   version="1.1"
   id="svg5"
   xmlns:inkscape="http://www.inkscape.org/namespaces/inkscape"
   xmlns:sodipodi="http://sodipodi.sourceforge.net/DTD/sodipodi-0.dtd"
   xmlns="http://www.w3.org/2000/svg"
   xmlns:svg="http://www.w3.org/2000/svg">
  <sodipodi:namedview
     id="namedview7"
     pagecolor="#ffffff"
     bordercolor="#000000"
     borderopacity="0.25"
     inkscape:showpageshadow="2"
     inkscape:pageopacity="0.0"
     inkscape:pagecheckerboard="0"
     inkscape:deskcolor="#d1d1d1"
     inkscape:document-units="mm"
     showgrid="false" />
  <defs
     id="defs2" />
  <g
     inkscape:label="Layer 1"
     inkscape:groupmode="layer"
     id="layer1"
     style="fill:#ffffff"
     transform="translate(-31.59779,-32.588805)">
    <path
       id="rect3018"
       style="fill:#ffffff;stroke:#000000;stroke-width:6.20001"
       d="M 116.29583,67.121057 V 169.1159 c 0,1.75013 -2.68855,3.15908 -3.8304,3.15908 H 36.758906 c -1.141855,0 -2.06111,-1.40895 -2.06111,-3.15908 V 36.525 c 0,-1.36496 43.804201,-0.602058 47.316445,-0.78804 3.512244,-0.185982 6.733268,2.155085 8.354151,3.585399 1.25734,1.109513 14.631978,10.468823 22.229828,18.884018 0.70427,0.834313 3.6396,2.399264 3.69761,8.91468 z M 82.06229,36.627402 81.786686,58.406879 c -0.04152,2.44552 2.493719,2.967197 5.579123,2.892727 l 26.085341,0.54136"
       sodipodi:nodetypes="cssssszscccccc" />
    <path
       style="fill:#1a1a1a;stroke:#000000;stroke-width:1.798;stroke-linecap:round;stroke-linejoin:bevel;stroke-dasharray:none"
       id="path5337"
       d="m 50.640577,77.785446 c 0.785101,-0.569497 1.562259,-1.293593 2.543659,-1.501278 0.750523,-0.158826 0.950431,-0.01664 1.670267,0.170813 0.931376,0.420494 0.631683,0.25994 1.4942,0.745024 0.352743,0.198387 0.830374,0.541512 1.2661,0.558019 0.492718,0.01868 1.036614,-0.26979 1.466684,-0.452302 0.213339,-0.104346 0.426275,-0.209521 0.640019,-0.313039 0.414896,-0.200935 0.596209,-0.301863 1.020408,-0.442648 1.022397,-0.339315 -0.132678,0.07456 0.84605,-0.197845 0.171032,-0.0476 0.334825,-0.11816 0.502237,-0.177242 0.915501,-0.4474 1.774651,-1.21734 2.753239,-1.522777 0.463002,-0.144513 0.735343,-0.10259 1.203769,-0.09262 0.505891,0.04437 1.003393,0.147312 1.504058,0.227835 0.352611,0.05671 0.607269,0.07592 0.949773,0.199361 0.202268,0.0729 0.392993,0.174541 0.589491,0.261811 0.836647,0.429919 1.605002,0.990618 2.478918,1.349676 0.880362,0.361702 1.814092,0.510247 2.746897,0.656141 0.987319,0.141438 1.988021,0.113043 2.981261,0.06929 0.252061,-0.01111 0.5036,-0.04054 0.755899,-0.03917 0.291475,0.0016 0.582078,0.03201 0.873117,0.04801 1.007877,0.106352 2.01762,0.205097 3.02016,0.355986 0.766398,0.115348 1.268415,0.23323 2.037102,0.320136 0.314303,0.03554 0.630711,0.04901 0.946065,0.07351 0.310195,-0.02702 0.629655,-0.0011 0.930582,-0.08105 0.629258,-0.167201 2.191853,-0.996878 2.659075,-1.220721 0.617527,-0.295855 2.496556,-1.164738 3.163449,-1.430353 0.446661,-0.177898 0.906946,-0.319477 1.360418,-0.479216 0.944095,-0.26569 1.902984,-0.426514 2.868526,-0.170956 0.533511,0.141208 1.132332,0.463778 1.618234,0.697802 0.30885,0.148749 0.617921,0.297037 0.926883,0.445555 1.652533,0.847556 3.511983,0.973276 5.333663,1.050142 0,0 -3.0129,-2.20259 -3.0129,-2.20259 v 0 c -1.772497,-0.02799 -3.5335,-0.232402 -5.124114,-1.082744 -0.856869,-0.411535 -1.741466,-0.943763 -2.694165,-1.101116 -0.956677,-0.158012 -1.878822,0.120195 -2.76502,0.450718 -0.431019,0.1827 -0.866291,0.355682 -1.293061,0.548105 -1.373314,0.619202 -1.705028,0.858232 -3.133936,1.440855 -0.67853,0.276661 -2.05186,0.797221 -2.861744,0.937921 -0.294183,0.05111 -0.596538,0.02766 -0.894805,0.04149 -2.014868,-0.162653 -3.997783,-0.596117 -6.015636,-0.748093 -0.312298,-0.01752 -0.62417,-0.04622 -0.936894,-0.05256 -1.219997,-0.02474 -2.448709,0.157488 -3.662141,-0.06544 -0.696685,-0.118517 -1.045723,-0.154241 -1.731081,-0.371205 -1.258671,-0.398452 -2.332244,-1.160955 -3.503401,-1.746679 -0.22384,-0.08455 -0.442941,-0.182925 -0.671523,-0.253666 -0.75764,-0.234474 -1.708706,-0.283671 -2.49704,-0.328962 -0.54742,0.05426 -0.716208,0.0329 -1.245891,0.250709 -0.963726,0.396284 -1.767641,1.139941 -2.783792,1.429861 -0.465958,0.116583 -0.939128,0.215537 -1.383014,0.404598 -0.409776,0.17453 -0.561319,0.290129 -0.967658,0.498708 -0.199475,0.102396 -0.403043,0.196612 -0.604562,0.294918 -0.529133,0.173151 -0.770943,0.328758 -1.339977,0.221157 -0.336767,-0.06368 -0.902986,-0.416177 -1.192559,-0.564626 -0.231487,-0.118674 -0.461601,-0.241351 -0.701477,-0.34199 -0.270343,-0.113424 -0.551349,-0.199533 -0.827021,-0.299297 -0.834197,-0.122023 -0.95993,-0.229187 -1.789856,2.44e-4 -1.011039,0.2795 -1.813756,1.008075 -2.77939,1.390012 0,0 3.262455,2.141781 3.262455,2.141781 z" />
    <path
       style="fill:#1a1a1a;stroke:#000000;stroke-width:1.798;stroke-linecap:round;stroke-linejoin:bevel;stroke-dasharray:none"
       id="path5339"
       d="m 50.075991,89.581743 c 0.140502,0.01508 0.286565,0.08718 0.4215,0.04523 0.673819,-0.209497 2.831134,-1.386388 3.207067,-1.579769 0.579184,-0.297931 3.592637,-1.83728 4.23177,-2.107321 0.618003,-0.261115 1.265856,-0.445032 1.898785,-0.667547 1.61413,-0.04612 1.620525,-0.228788 3.086515,0.408472 0.431141,0.187415 1.66206,0.872019 1.224971,0.698928 -0.684316,-0.270994 -2.587364,-1.397431 -1.971414,-0.994526 3.775205,2.469444 2.542728,2.28509 5.048242,2.284669 1.219462,-0.203382 2.187546,-0.724527 3.452323,-0.663776 1.344489,0.06458 2.410527,0.600332 3.587869,1.176211 0.360064,0.201975 1.679689,0.981191 2.117016,1.077005 1.368722,0.299868 3.430194,-0.596178 4.721429,-1.062919 0.370303,-0.07626 0.737576,-0.1691 1.110911,-0.228785 0.382024,-0.06108 0.770097,-0.0776 1.152965,-0.133144 1.435854,-0.208296 2.850104,-0.509238 4.293134,-0.673457 1.674445,-0.01622 3.339724,0.202472 4.991089,0.458028 1.104736,0.211468 2.187596,0.512149 3.308213,0.631772 0.872635,0.07553 1.747144,0.01437 2.62019,-0.01484 0,0 -2.993713,-2.162892 -2.993713,-2.162892 v 0 c -0.895707,0.01781 -1.792706,0.01998 -2.682756,-0.100753 -1.075854,-0.151569 -2.130949,-0.408924 -3.206091,-0.564536 -1.655019,-0.217784 -3.32223,-0.466892 -4.995937,-0.337619 -1.012722,0.153572 -2.010928,0.362947 -3.019909,0.537069 -0.788273,0.136036 -1.58823,0.199144 -2.375217,0.342432 -0.384048,0.06992 -0.760138,0.17811 -1.140206,0.267166 -1.094677,0.411199 -2.236769,0.926621 -3.428088,0.962967 -1.335521,0.04075 -2.065826,-0.597234 -3.199249,-1.166678 -1.271394,-0.568947 -2.292238,-1.039124 -3.727532,-1.052539 -1.280842,-0.01196 -2.2113,0.526391 -3.468184,0.588997 -0.335394,-0.0424 -1.241515,-0.369903 -1.006176,-0.127206 0.567356,0.585105 2.78503,1.693963 2.098902,1.254111 -1.309753,-0.839631 -2.629566,-1.664472 -3.970255,-2.453764 -0.797481,-0.469492 -1.752388,-0.906767 -2.699189,-0.945335 -0.53425,-0.02175 -1.060419,0.138163 -1.59063,0.207243 -3.193608,1.339048 -0.443042,0.131466 -3.843206,1.800302 -1.819846,0.893199 -3.804321,1.959787 -5.878078,2.038175 -0.163468,0.0062 -0.315246,-0.08752 -0.472869,-0.131276 0,0 3.095808,2.389905 3.095808,2.389905 z" />
    <path
       style="fill:#1a1a1a;stroke:#000000;stroke-width:1.798;stroke-linecap:round;stroke-linejoin:bevel;stroke-dasharray:none"
       id="path5341"
       d="m 51.667163,102.50381 c 0.82999,-0.54913 0.790065,-0.54853 1.758926,-1.06139 0.352952,-0.18684 0.688245,-0.42447 1.072039,-0.53485 0.582819,-0.16762 1.721356,-0.12589 2.308122,0.002 0.368699,0.0805 0.713195,0.24705 1.06979,0.37057 0.347392,0.17396 1.452795,0.77992 1.888318,0.79978 0.838419,0.0382 1.811393,-0.65003 2.485813,-0.9278 1.887993,-0.77759 2.301867,-0.80448 4.312446,-1.315869 1.978737,-0.335952 3.953905,-0.277993 5.909771,0.152323 1.185071,0.260726 2.305052,0.718996 3.43172,1.155526 0.621717,0.20724 1.057042,0.37617 1.70131,0.49813 1.234308,0.23365 2.50661,0.24612 3.75579,0.30175 0.557244,0.0248 1.114287,0.054 1.671431,0.081 1.366898,0.0578 2.732545,0.1423 4.099359,0.20184 0.655396,0.0285 1.195591,0.0738 1.84568,-0.0194 0.264827,-0.038 0.521115,-0.12143 0.781672,-0.18214 0.560014,-0.20886 1.146016,-0.44194 1.542558,-0.91431 0.0711,-0.0847 0.108561,-0.1927 0.16284,-0.28905 0,0 -3.408143,-1.893573 -3.408143,-1.893573 v 0 c -0.005,0.06166 0.01619,0.13157 -0.01503,0.184984 -0.269444,0.461063 -0.869281,0.610153 -1.316752,0.807916 -0.240027,0.05154 -0.476724,0.122253 -0.720079,0.154613 -0.525214,0.0698 -1.224016,0.0525 -1.746028,0.0518 -1.303388,-0.002 -2.607085,-0.0102 -3.909274,-0.0738 -2.456125,-0.140064 -4.96147,-0.27738 -7.291867,-1.13594 -0.617339,-0.21649 -1.305615,-0.470617 -1.935837,-0.633746 -2.326053,-0.602094 -4.71773,-0.645813 -7.077064,-0.184438 -1.903336,0.470186 -2.694131,0.646554 -4.575207,1.186587 -0.650441,0.186735 -1.761122,0.678339 -2.554208,0.57055 -0.26688,-0.03627 -1.640575,-0.656166 -1.842109,-0.743955 -0.372239,-0.100973 -0.735361,-0.245253 -1.116716,-0.302921 -0.695656,-0.105193 -1.73323,-0.05099 -2.399249,0.162062 -0.381691,0.1221 -0.714793,0.36267 -1.075561,0.537149 -1.110128,0.536892 -0.976251,0.464648 -2.033754,0.899922 0,0 3.219283,2.09448 3.219283,2.09448 z" />
    <path
       style="fill:#1a1a1a;stroke:#000000;stroke-width:1.798;stroke-linecap:round;stroke-linejoin:bevel;stroke-dasharray:none"
       id="path5349"
       d="m 47.816391,160.59087 c 1.115452,-1.25647 2.659576,-1.9579 4.321408,-2.12043 0.324792,-0.0318 0.652521,-0.0146 0.978778,-0.0219 0.297728,0.0168 0.595884,0.0273 0.893181,0.0505 0.993079,0.0775 0.73815,0.12079 1.835457,0.12634 1.881192,0.01 1.30865,-0.10396 3.360777,-0.002 0.652666,0.0325 1.302583,0.10672 1.953873,0.16008 1.592266,0.15067 3.15785,0.4752 4.729044,0.75875 0.312301,0.0564 1.60198,0.28405 1.991693,0.30156 0.242189,0.0109 0.484063,-0.0279 0.726094,-0.0419 1.256535,-0.50162 2.230591,-2.16534 3.616854,-2.25824 0.248547,-0.0166 0.494093,0.0639 0.741137,0.0959 0.325075,0.17029 1.289394,0.70052 0.97522,0.51087 -0.566097,-0.34172 -1.117264,-0.72336 -1.731767,-0.96755 -0.453405,-0.18017 0.822167,0.52598 1.242769,0.77323 1.358654,0.79868 2.720375,1.59246 4.094483,2.36425 0.335444,0.18841 0.67958,0.36274 1.032685,0.5155 0.281315,0.12171 0.578006,0.20425 0.867007,0.30637 0.605195,0.0458 0.80903,0.12516 1.382388,-0.0608 0.187319,-0.0608 0.353446,-0.17375 0.530169,-0.26062 0,0 -3.154,-2.09131 -3.154,-2.09131 v 0 c -0.15067,0.0625 -0.293785,0.14791 -0.452014,0.18761 -0.494244,0.12404 -0.677807,0.0457 -1.18672,-0.0232 -0.254775,-0.0932 -0.516006,-0.17032 -0.764323,-0.27956 -0.325191,-0.14305 -1.245777,-0.67813 -0.953529,-0.47613 0.569203,0.39342 1.169493,0.74453 1.788678,1.05338 0.435454,0.2172 -0.817051,-0.52924 -1.235572,-0.7775 -4.307634,-2.55522 -2.791764,-1.85753 -5.405686,-2.95685 -0.276723,0.004 -0.55852,-0.0408 -0.830167,0.0121 -1.423517,0.27726 -2.165387,1.86214 -3.58543,2.15804 -0.21163,0.011 -0.42305,0.0389 -0.634886,0.0331 -0.448911,-0.0123 -1.437339,-0.15357 -1.834378,-0.2096 -1.507622,-0.21275 -3.012016,-0.45505 -4.531211,-0.57566 -0.662414,-0.0551 -1.324039,-0.12059 -1.987238,-0.16521 -2.769301,-0.1863 -1.079775,-0.009 -3.621625,-0.20562 -0.970108,-0.0751 -1.023998,-0.12949 -1.901952,-0.15701 -0.294396,-0.009 -0.589071,-0.003 -0.883607,-0.005 -0.894361,0.0806 -1.148869,0.0631 -2.043015,0.32089 -1.375976,0.39663 -2.559979,1.17562 -3.741346,1.95862 0,0 3.416771,1.96844 3.416771,1.96844 z" />
    <path
       style="fill:#1a1a1a;stroke:#000000;stroke-width:1.798;stroke-linecap:round;stroke-linejoin:bevel;stroke-dasharray:none"
       id="path5345"
       d="m 48.528615,137.84183 c 0.50038,-0.76353 0.586594,-0.93787 1.207865,-1.68292 0.589248,-0.70665 0.811467,-1.17459 1.836201,-1.14399 1.067707,0.0319 1.977511,0.72243 2.847117,1.21622 -0.387199,-0.17318 -1.379183,-0.88365 -1.161597,-0.51955 0.306652,0.51316 0.952939,0.72654 1.467315,1.03114 1.670453,0.98919 3.518123,2.68222 5.674077,2.47421 0.964457,-0.0931 1.774328,-0.59188 2.612083,-1.01057 1.376971,-0.78933 2.587411,-1.84549 4.059148,-2.46191 0.129574,-0.0404 0.257341,-0.0871 0.388723,-0.12119 0.303112,-0.0786 0.452329,-0.1364 0.747265,0.0205 0.169762,0.0903 0.635021,0.43041 0.463722,0.34308 -1.84604,-0.9412 -3.696308,-2.11832 -1.999932,-1.05402 3.470709,1.66778 2.669259,2.04038 4.838054,1.89555 0.73025,-0.0488 1.456029,-0.21545 2.19161,-0.17792 0.217252,0.0111 0.431308,0.0571 0.646964,0.0856 0.779362,0.25228 1.602283,0.24867 2.404208,0.35937 0.412158,0.0569 0.822548,0.12869 1.229471,0.21544 1.053092,0.2245 1.354995,0.34899 2.36246,0.67344 0.871513,0.2752 1.658736,0.76359 2.569612,0.91574 0.354692,0.0592 0.716626,0.0619 1.073944,0.10244 1.186494,0.13454 1.456401,0.19146 2.645092,0.38079 1.305475,0.18395 2.592552,0.52511 3.90952,0.62899 0.431279,0.034 0.675421,0.0206 1.093327,0.0126 0.788178,0.0272 1.348288,-0.55022 2.007167,-0.88887 0.828796,-0.42598 0.961249,-0.42199 1.859634,-0.69694 1.232612,-0.34487 2.485763,-0.3247 3.735668,-0.12856 0.620951,0.13846 1.232737,-0.11897 1.837157,-0.24798 0.24587,-0.0769 0.51166,-0.0547 0.76088,-0.10496 0.29036,-0.0586 0.57433,-0.19118 0.85387,-0.2865 0.58955,-0.23366 1.08125,-0.21318 1.68984,-0.0753 0.30304,0.0974 0.61235,0.13531 0.92792,0.15248 0,0 -3.12898,-2.31745 -3.12898,-2.31745 v 0 c -0.2954,-0.0398 -0.58711,-0.0956 -0.87924,-0.15514 -0.67603,-0.0849 -1.18985,-0.0493 -1.821004,0.21738 -0.522849,0.17259 -1.058566,0.24389 -1.595639,0.35786 -0.579506,0.14123 -1.144899,0.27998 -1.743276,0.15371 -1.221039,-0.0866 -2.429301,0.0457 -3.601913,0.41495 -0.960019,0.30719 -1.04272,0.30969 -1.97013,0.70177 -0.665588,0.2814 -1.27872,0.67934 -2.026629,0.66963 -1.573355,0.0694 -3.120837,-0.27105 -4.672721,-0.48328 -1.2725,-0.19956 -2.61153,-0.35239 -3.864025,-0.64729 -0.575734,-0.13556 -0.969434,-0.31982 -1.522897,-0.51712 -0.309012,-0.11015 -0.62075,-0.21251 -0.931122,-0.31876 -1.06571,-0.30995 -1.237649,-0.3811 -2.35481,-0.61494 -1.276233,-0.26713 -2.570609,-0.44706 -3.849843,-0.69769 -0.752552,-0.0409 -0.595646,-0.059 -1.359734,0.01 -0.315574,0.0283 -1.131266,0.13965 -1.447906,0.14771 -1.612378,0.041 -1.565391,-0.54779 1.5977,1.59747 -2.42951,-1.34838 2.784758,1.55672 -4.380352,-2.6372 -0.748421,-0.43807 -1.129088,-0.30981 -1.863502,0.01 -0.142658,0.0726 -0.290722,0.13547 -0.427974,0.21785 -0.215377,0.12927 -0.76675,0.55186 -0.93186,0.67984 -0.78753,0.61042 -1.549136,1.25822 -2.412995,1.76308 -0.90301,0.4368 -1.446255,0.81094 -2.488885,0.85809 -0.435832,0.0197 -1.375196,-0.602 -1.297387,-0.17272 0.102775,0.56703 1.785776,1.41792 1.439585,0.95724 -1.398823,-1.86144 -5.232422,-1.21321 -5.889795,-3.75571 -1.066755,-0.55576 -1.962454,-1.24366 -3.235568,-1.16176 -1.052285,0.0677 -1.316919,0.62423 -1.942626,1.31171 -0.990503,1.08829 -0.49598,0.59882 -1.467533,1.48367 0,0 3.292676,2.02147 3.292676,2.02147 z" />
    <path
       style="fill:#1a1a1a;stroke:#000000;stroke-width:1.798;stroke-linecap:round;stroke-linejoin:bevel;stroke-dasharray:none"
       id="path5360"
       d="m 45.432247,44.977065 c -0.07102,0.15724 -0.147651,0.312068 -0.213072,0.471721 -0.681707,1.663639 -0.303845,0.969462 -1.256427,2.763795 -0.26403,0.49734 -0.547256,0.98426 -0.82442,1.474401 -0.209077,0.369729 -0.442275,0.726297 -0.634283,1.10517 -0.09514,0.187727 -0.149876,0.393327 -0.224812,0.589992 1.18186,0.706389 2.286665,1.561578 3.545584,2.119166 0.221702,0.0982 0.454221,-0.170328 0.684752,-0.245501 0.239826,-0.07821 0.473504,-0.212061 0.725749,-0.214453 0.208683,-0.0019 0.782387,0.288772 0.592612,0.201951 -3.149675,-1.44092 -2.91152,-2.170332 -2.620884,-0.04018 -0.0042,1.571389 -0.353626,3.100676 -0.757806,4.608891 -0.101187,0.377586 -0.224382,0.749032 -0.326236,1.126439 -0.0528,0.195652 -0.129509,0.389689 -0.137576,0.592177 -0.0044,0.109633 0.06767,0.208743 0.101508,0.313114 1.21917,0.599792 2.438341,1.199581 3.657512,1.799373 0.117671,-0.0062 0.240948,-0.05512 0.353015,-0.01871 0.115718,0.03761 0.394388,0.282297 0.286285,0.226459 -0.978033,-0.505174 -1.906384,-1.106374 -2.901397,-1.577216 -0.137774,-0.06519 0.200543,0.229595 0.299143,0.345827 0.07593,0.08951 0.149611,0.180906 0.224417,0.271356 1.249037,0.52731 2.403168,1.403155 3.747116,1.581923 0.413205,0.05496 0.495888,-0.67201 0.776576,-0.980189 0.485926,-0.533516 0.976257,-1.067149 1.520132,-1.541454 1.464119,-1.276832 3.280211,-2.510838 4.964028,-3.456982 0.95305,-0.535525 1.955702,-0.977549 2.933554,-1.466324 1.020011,-0.393584 2.024205,-0.830905 3.060031,-1.180756 0.957342,-0.323339 1.93389,-0.58947 2.913615,-0.836835 1.987958,-0.501927 4.056179,-0.874971 6.11206,-0.917739 0.353973,-0.0074 0.707615,0.02614 1.061421,0.03921 1.83048,0.373042 0.740389,0.221623 -2.67508,-1.935194 0,0 3.412847,2.010434 3.412847,2.010434 v 0 c -3.276208,-2.237372 -1.913869,-2.406499 -3.546689,-2.093368 -0.886346,0.146455 -1.20926,0.187174 -2.171698,0.41801 -1.416224,0.33967 -2.712156,0.723249 -4.106031,1.175422 -2.928665,0.950058 -2.867239,0.979289 -5.846427,2.144879 -0.990465,0.487323 -1.996045,0.945058 -2.971395,1.461969 -0.965681,0.511789 -1.905526,1.071118 -2.849033,1.622716 -1.890488,1.105223 -2.825864,1.707771 -4.618373,2.81229 -0.354828,0.218642 -1.30287,0.30819 -1.06701,0.651815 0.651299,0.948878 1.90072,1.298268 2.851079,1.947399 -0.09575,-0.08619 -0.201864,-0.162099 -0.287266,-0.258553 -0.10332,-0.116689 -0.147148,-0.289661 -0.275897,-0.377492 -1.146297,-0.781968 -2.327465,-1.513366 -3.524575,-2.215076 -0.118973,-0.06974 -0.266915,-0.0756 -0.404273,-0.08789 -0.122071,-0.01093 -0.466857,-0.05244 -0.367189,0.01886 0.950468,0.680162 1.985735,1.233244 2.978605,1.849866 -0.128722,-0.03486 -0.30644,0.0024 -0.386167,-0.104593 -0.369057,-0.494866 -0.08751,-1.422407 -0.0099,-1.866167 0.269216,-1.539536 0.649129,-3.05817 0.949936,-4.59137 0.301956,-2.481476 0.512734,-1.322879 -3.26559,-3.672678 -0.304157,-0.189159 -1.119677,0.115837 -1.363422,0.14969 -0.224819,0.03123 -0.845468,-0.13317 -0.680548,0.02278 0.78182,0.739264 1.767697,1.227296 2.651545,1.840944 -0.229539,-0.943641 -0.285398,-0.662379 0.258834,-1.850101 0.726718,-1.585971 1.780964,-3.005228 2.989057,-4.2531 0,0 -3.337523,-1.97615 -3.337523,-1.97615 z" />
    <path
       style="fill:#1a1a1a;stroke:#000000;stroke-width:1.798;stroke-linecap:round;stroke-linejoin:bevel;stroke-dasharray:none"
       id="path5347"
       d="m 47.777098,150.22879 c 0.252153,-0.14489 0.497115,-0.30308 0.756457,-0.43467 0.874683,-0.44379 1.951947,-0.89652 2.858852,-1.23202 1.063154,-0.3933 2.220261,-0.7874 3.348455,-0.95928 0.488254,-0.0744 0.985729,-0.0636 1.478595,-0.0954 1.165699,0.1092 1.280718,0.0703 2.371222,0.35163 0.309113,0.0797 0.608272,0.19414 0.914078,0.28575 0.294296,0.0882 0.582538,0.20627 0.8861,0.25353 0.89073,0.13867 1.884444,0.0337 2.76552,-0.009 1.852186,-0.0666 3.701722,0.0662 5.542679,0.25525 1.257673,0.12914 1.738847,0.28765 3.016528,0.12642 0.652706,-0.0824 1.289331,-0.26243 1.933998,-0.39364 3.880448,-0.83561 7.78682,-1.56218 11.718931,-2.10629 1.626134,-0.1686 3.26431,-0.23487 4.897887,-0.15316 0.542274,0.0271 1.564896,0.1684 2.128999,0.1 0.35888,-0.0435 0.702069,-0.1728 1.053105,-0.25919 0.858176,-0.26192 1.229143,-0.43894 2.14359,-0.4581 1.617121,-0.0339 3.283323,0.64316 4.768996,1.21466 0.97274,0.32783 1.90015,0.93048 2.93273,1.07814 0.39533,0.0565 1.15493,0.0204 1.53146,0.0116 1.19937,-0.0453 0.60506,-0.0243 1.78295,-0.0632 0,0 -2.96425,-2.13666 -2.96425,-2.13666 v 0 c -1.16379,0.0493 -0.57007,0.0343 -1.78124,0.0424 -0.61871,-0.0275 -0.95303,-0.0137 -1.54402,-0.1395 -0.953255,-0.2029 -1.830221,-0.68037 -2.752239,-0.97745 -1.561552,-0.5451 -3.18685,-1.1499 -4.869997,-1.07389 -0.86414,0.039 -1.368851,0.23058 -2.182027,0.46159 -0.345154,0.0596 -0.686609,0.14746 -1.035462,0.17889 -0.260134,0.0234 -1.791978,-0.0172 -2.015739,-0.0147 -1.580684,0.0176 -3.156559,0.16608 -4.727596,0.32863 -1.332381,0.17222 -2.476524,0.30329 -3.797017,0.539 -2.64459,0.47206 -5.231739,1.24285 -7.900273,1.59223 -0.687988,0.0807 -1.372727,0.19698 -2.063959,0.24209 -1.054981,0.0688 -1.900047,-0.0396 -2.943347,-0.11 -1.858375,-0.12537 -3.719102,-0.20638 -5.581261,-0.2487 -1.357841,-0.0435 -1.698363,0.0129 -2.937692,-0.24288 -0.299263,-0.0618 -0.586851,-0.17077 -0.882198,-0.24915 -1.04676,-0.27779 -2.101699,-0.46916 -3.192462,-0.40654 -0.478856,0.0619 -0.963309,0.09 -1.436571,0.18573 -2.545641,0.51473 -4.900097,1.71352 -7.420846,2.31888 0,0 3.197064,2.19739 3.197064,2.19739 z"
       inkscape:export-filename="blogs-icon.svg"
       inkscape:export-xdpi="82.4384"
       inkscape:export-ydpi="82.4384" />
    <path
       style="fill:#1a1a1a;stroke:#000000;stroke-width:1.798;stroke-linecap:round;stroke-linejoin:bevel;stroke-dasharray:none"
       id="path5362"
       d="m 55.09271,49.604342 c 0.371203,1.830975 0.501254,3.713181 0.45515,5.579877 -0.01222,0.494475 -0.05765,0.987571 -0.08647,1.481357 -0.03923,0.335092 -0.183753,1.814703 -0.327726,2.225138 -0.05325,0.151802 -0.433488,0.302945 -0.293857,0.382839 3.697661,2.11569 3.33842,2.014381 2.749318,0.07019 0,0 -3.015597,-1.481474 -3.015597,-1.481474 v 0 c -0.04018,2.27779 -0.342656,1.591218 3.499228,3.215249 0.185674,0.07849 0.07679,-0.396516 0.09446,-0.597321 0.03081,-0.350039 0.03638,-0.701852 0.05077,-1.052949 0.01802,-0.439248 0.03096,-0.878687 0.04644,-1.31803 0.03009,-1.03274 0.05781,-2.065549 0.08843,-3.098273 0.03585,-1.208879 0.06823,-2.418398 0.254831,-3.615622 0,0 -3.514995,-1.79098 -3.514995,-1.79098 z" />
    <path
       style="fill:#1a1a1a;stroke:#000000;stroke-width:1.798;stroke-linecap:round;stroke-linejoin:bevel;stroke-dasharray:none"
       id="path5343"
       d="m 51.319451,118.13522 c 1.301186,-1.37838 3.047933,-2.6902 4.832408,-3.33812 0.679286,-0.24665 1.39175,-0.49316 2.114301,-0.47967 0.732213,0.0137 1.416516,0.37253 2.124771,0.5588 0.738568,0.43424 1.540192,0.77571 2.2157,1.30271 0.106664,0.0832 -0.477576,0.0247 -0.386278,0.12453 0.517707,0.56611 1.155009,1.02044 1.805387,1.42727 2.396852,1.49929 3.598579,2.67358 6.127821,2.66043 0.554175,-0.003 1.097658,-0.15367 1.646489,-0.23051 1.585505,-0.27363 3.013321,-1.1031 4.585803,-1.41824 0.525383,-0.10529 0.999437,-0.0922 1.530678,-0.10351 1.680787,-0.0672 3.332917,0.25311 4.997363,0.40452 2.258417,0.008 4.469487,-0.49375 6.706719,-0.71746 1.029808,-0.11114 2.076921,-0.0356 3.091518,-0.27758 0.595583,-0.14204 1.174314,-0.34723 1.761546,-0.52058 0.733017,-0.16331 1.453459,-0.49761 2.216086,-0.519 0.721694,-0.0202 1.442128,0.27061 2.116503,0.48198 0.246745,0.0936 0.493088,0.18822 0.740235,0.28072 0.231855,0.0868 0.459529,0.18632 0.696749,0.25714 1.14139,0.34071 2.33991,0.32284 3.51786,0.32668 1.78101,-0.0599 2.6871,-0.90937 3.94121,-2.00497 0,0 -3.22215,-1.98704 -3.22215,-1.98704 v 0 c -1.1462,1.17498 -1.92306,1.7808 -3.64857,1.85995 -0.84766,-0.0111 -1.06291,0.0118 -1.918535,-0.10759 -1.045112,-0.14584 -2.02311,-0.515 -3.010945,-0.86784 -0.507413,-0.14759 -1.065988,-0.33657 -1.59747,-0.38899 -0.983435,-0.097 -1.90229,0.36839 -2.826088,0.61875 -0.648049,0.1822 -1.116574,0.33178 -1.780233,0.44783 -0.999342,0.17475 -2.02592,0.13703 -3.02572,0.31344 -2.222931,0.32784 -4.449034,0.83633 -6.710317,0.61233 -1.674368,-0.20042 -3.353152,-0.38228 -5.042466,-0.36925 -0.662366,0.0444 -0.904238,0.0253 -1.547932,0.20976 -1.461582,0.41878 -2.791229,1.27463 -4.307564,1.5331 -0.525251,0.0581 -1.047428,0.18575 -1.575756,0.17427 -0.53885,-0.0117 -1.167177,-0.56645 -1.598522,-0.24328 -0.321813,0.2411 1.28633,0.96488 0.974915,0.71049 -2.766038,-2.25952 -5.789953,-4.20535 -8.945469,-5.87343 -0.74295,-0.15127 -1.470864,-0.47162 -2.228845,-0.45381 -0.729589,0.0171 -1.430981,0.30868 -2.117617,0.55591 -1.965735,0.70781 -3.689334,1.91278 -5.543158,2.84364 0,0 3.289573,2.19662 3.289573,2.19662 z" />
    <path
       style="fill:#1a1a1a;stroke:#000000;stroke-width:1.798;stroke-linecap:round;stroke-linejoin:bevel;stroke-dasharray:none"
       id="path5364"
       d="m 60.269056,42.875856 c 0.01492,0.441536 0.0562,0.882967 0.04477,1.324607 -0.06337,2.448457 -0.589124,4.868484 -1.281115,7.208229 -0.136718,0.462269 -0.294777,0.917958 -0.442166,1.376936 -0.09918,0.307555 -0.242414,0.604251 -0.297543,0.922666 -0.242948,1.403215 2.85908,2.083657 3.709694,2.433484 0.185552,0.07631 0.375603,-0.141248 0.564676,-0.208357 0.182753,-0.06487 0.361577,-0.144711 0.550715,-0.187531 0.16674,-0.03775 0.340116,-0.03511 0.510177,-0.05266 0.153123,0.01206 0.306255,0.04841 0.459365,0.03618 0.52266,-0.04176 0.807585,-0.238625 1.307287,-0.435518 0.319233,-0.125783 1.383919,-0.516649 1.723091,-0.612751 0.250053,-0.07085 0.507574,-0.112043 0.761363,-0.168063 0.202932,0.03232 0.417269,0.02252 0.608798,0.09697 0.165497,0.06433 0.593037,0.387983 0.434266,0.308486 -0.942155,-0.471747 -1.798818,-1.127588 -2.789079,-1.487564 -0.220848,-0.08028 0.26475,0.391056 0.361627,0.605147 0.26538,0.586459 0.598697,1.806683 0.759675,2.348603 0.359941,1.374227 0.628361,2.767975 0.864555,4.167716 0.144454,0.856084 0.04729,0.496811 0.200342,0.999821 0,0 3.532447,1.439558 3.532447,1.439558 v 0 c -0.137615,-0.06103 -0.321209,-0.06365 -0.412848,-0.183091 -0.336267,-0.438275 -0.574241,-1.666026 -0.674627,-2.087071 -0.385138,-1.615413 -0.303688,-1.293728 -0.607684,-2.939941 -0.06064,-0.381529 -0.268938,-1.774203 -0.385905,-2.248731 -0.05694,-0.231021 -0.03419,-0.531881 -0.221547,-0.678558 -1.097303,-0.859076 -2.327187,-1.535343 -3.522157,-2.252374 -0.146952,-0.08818 -0.319632,-0.138068 -0.490153,-0.155181 -0.198705,-0.01995 -0.398222,0.03069 -0.597334,0.04603 -0.239885,0.07647 -0.4816,0.147418 -0.719656,0.22941 -0.861738,0.296799 -1.688174,0.62635 -2.595494,0.76754 -0.184862,0.02877 -0.373121,0.0281 -0.559729,0.04147 -0.156641,0.01122 -0.313343,0.02154 -0.470014,0.03231 -0.171958,0.03842 -0.345482,0.0704 -0.515876,0.115253 -0.182941,0.04815 -0.358437,0.124042 -0.543431,0.163573 -0.17213,0.03678 -0.657748,-0.04997 -0.524084,0.06455 0.8289,0.710179 1.815164,1.212805 2.722745,1.819206 -0.134559,-0.13412 -0.357925,-0.217969 -0.403674,-0.402362 -0.08259,-0.332904 0.03256,-0.685221 0.04884,-1.027832 0.09565,-0.487982 0.185058,-0.977231 0.286949,-1.463948 0.386762,-1.847522 0.843237,-3.679671 1.24071,-5.524804 0.113774,-0.528161 0.21164,-1.059651 0.323927,-1.58813 0.08404,-0.395515 0.176676,-0.789151 0.265012,-1.183727 0,0 -3.226911,-1.659559 -3.226911,-1.659559 z" />
    <path
       id="path5619"
       style="fill:#f9f9f9;stroke:none;stroke-width:1.798;stroke-linecap:round;stroke-linejoin:bevel"
       inkscape:transform-center-x="2.3741722"
       inkscape:transform-center-y="-5.1358226"
       d="M 109.4339,58.65622 84.474923,58.287952 84.614049,38.993354 97.563022,48.238511 Z"
       sodipodi:nodetypes="ccccc"
       inkscape:export-filename="blogs-icon.svg"
       inkscape:export-xdpi="82.4384"
       inkscape:export-ydpi="82.4384" />
    <path
       style="fill:#ffffff;stroke:#ffffff;stroke-width:1.798;stroke-linecap:round;stroke-linejoin:bevel;stroke-dasharray:none"
       d="M 109.83851,174.66433 76.825322,128.44325 73.453753,110.85911 c -0.652929,-6.90644 2.005905,-9.45561 7.504336,-6.62572 l 16.718244,10.99778 21.022987,30.16319 -0.0981,29.45585 z"
       id="path6005"
       sodipodi:nodetypes="cccccccc" />
    <path
       id="path4485"
       style="fill:#ffffff;stroke:#000000;stroke-width:5.05778;stroke-linecap:round;stroke-linejoin:bevel;stroke-dasharray:none"
       d="m 93.332348,119.69197 -10.716483,7.87798 m 50.650325,46.45765 -11.16892,8.09131 m 17.33618,0.22793 -10.89235,7.82983 m -35.6018,-71.77718 49.18575,67.24583 c 5.71292,7.81061 9.21209,14.90319 4.9515,18.01951 -4.26058,3.11632 -10.78408,-1.76414 -16.497,-9.57474 L 81.830864,126.48288 m 0,0 -3.382683,-15.4044 c -0.486543,-3.23514 -0.540435,-3.07232 2.268879,-1.6665 l 12.222044,8.98725"
       sodipodi:nodetypes="cccccccsscccccc"
       inkscape:export-filename="blogs-icon.svg"
       inkscape:export-xdpi="82.4384"
       inkscape:export-ydpi="82.4384" />
  </g>
</svg>
