<?xml version="1.0" encoding="UTF-8" standalone="no"?>
<!-- Created with Inkscape (http://www.inkscape.org/) -->

<svg
   width="106.2416mm"
   height="109.29135mm"
   viewBox="0 0 106.2416 109.29135"
   version="1.1"
   id="svg5"
   xmlns:inkscape="http://www.inkscape.org/namespaces/inkscape"
   xmlns:sodipodi="http://sodipodi.sourceforge.net/DTD/sodipodi-0.dtd"
   xmlns="http://www.w3.org/2000/svg"
   xmlns:svg="http://www.w3.org/2000/svg">
  <sodipodi:namedview
     id="namedview7"
     pagecolor="#ffffff"
     bordercolor="#000000"
     borderopacity="0.25"
     inkscape:showpageshadow="2"
     inkscape:pageopacity="0.0"
     inkscape:pagecheckerboard="0"
     inkscape:deskcolor="#d1d1d1"
     inkscape:document-units="mm"
     showgrid="false" />
  <defs
     id="defs2" />
  <g
     inkscape:label="Layer 1"
     inkscape:groupmode="layer"
     id="layer1"
     style="fill:#ffffff"
     transform="translate(-29.999997,-39.999995)">
    <path
       id="rect2811-3-6"
       style="fill:none;stroke:#000000;stroke-width:6.2"
       d="M 41.716539,103.1 H 73.142 c 0,0 0,25.09656 0,36.74437 0,3.41583 -3.843376,6.16576 -8.616939,6.16576 H 41.716539 c -4.773563,0 -8.616541,-2.74993 -8.616541,-6.16576 v -30.57861 c 0,-3.41583 3.842978,-6.16576 8.616541,-6.16576 z"
       sodipodi:nodetypes="sccsssss"
       inkscape:export-filename="dashboard-icon.svg"
       inkscape:export-xdpi="96"
       inkscape:export-ydpi="96" />
    <path
       id="rect2811-3-6-7"
       style="fill:none;stroke:#000000;stroke-width:6.2"
       d="m 124.52506,103.281 c 4.77356,0 8.61654,2.75016 8.61654,6.16599 v 30.57861 c 0,3.41583 -3.84298,6.16576 -8.61654,6.16576 h -22.80852 c -4.773564,0 -8.616542,-2.74993 -8.616542,-6.16576 V 103.281 c 0,0 21.942202,0 31.425062,0 z"
       sodipodi:nodetypes="cssssscc" />
    <path
       id="rect2811-3"
       style="fill:none;stroke:#000000;stroke-width:6.2"
       d="m 101.71654,43.099998 h 22.80852 c 4.77356,0 8.61654,2.74993 8.61654,6.165761 v 30.578609 c 0,3.415831 -8.61654,6.165632 -8.61654,6.165632 H 93.099998 V 49.265759 c 0,-3.415831 3.842978,-6.165761 8.616542,-6.165761 z"
       sodipodi:nodetypes="ssssccss" />
    <path
       id="rect2811"
       style="fill:none;stroke:#000000;stroke-width:6.2"
       d="m 41.716539,43.099998 h 22.808522 c 4.773563,0 8.616939,2.74993 8.616939,6.165761 0.06246,16.071871 0,36.744241 0,36.744241 H 41.716539 c -4.773563,0 -8.616541,-2.749801 -8.616541,-6.165632 V 49.265759 c 0,-3.415831 3.842978,-6.165761 8.616541,-6.165761 z"
       sodipodi:nodetypes="ssccssss" />
  </g>
</svg>
