<svg id="visual" viewBox="0 0 900 600" width="900" height="600" xmlns="http://www.w3.org/2000/svg" xmlns:xlink="http://www.w3.org/1999/xlink" version="1.1"><rect x="0" y="0" width="900" height="600" fill="#931C1C"></rect><path d="M0 331L39 330L78 306L117 306L157 295L196 305L235 329L274 308L313 334L352 324L391 300L430 323L470 333L509 333L548 289L587 297L626 297L665 305L704 322L743 287L783 310L822 289L861 329L900 324L900 601L861 601L822 601L783 601L743 601L704 601L665 601L626 601L587 601L548 601L509 601L470 601L430 601L391 601L352 601L313 601L274 601L235 601L196 601L157 601L117 601L78 601L39 601L0 601Z" fill="#871400"></path><path d="M0 369L39 379L78 393L117 374L157 401L196 373L235 397L274 383L313 399L352 374L391 370L430 377L470 378L509 398L548 403L587 388L626 380L665 359L704 366L743 396L783 388L822 380L861 360L900 403L900 601L861 601L822 601L783 601L743 601L704 601L665 601L626 601L587 601L548 601L509 601L470 601L430 601L391 601L352 601L313 601L274 601L235 601L196 601L157 601L117 601L78 601L39 601L0 601Z" fill="#ac3505"></path><path d="M0 460L39 457L78 436L117 445L157 460L196 460L235 438L274 446L313 460L352 445L391 434L430 440L470 455L509 462L548 450L587 439L626 449L665 444L704 438L743 466L783 446L822 428L861 444L900 448L900 601L861 601L822 601L783 601L743 601L704 601L665 601L626 601L587 601L548 601L509 601L470 601L430 601L391 601L352 601L313 601L274 601L235 601L196 601L157 601L117 601L78 601L39 601L0 601Z" fill="#d15308"></path><path d="M0 523L39 532L78 529L117 511L157 523L196 516L235 527L274 505L313 530L352 516L391 499L430 508L470 510L509 503L548 526L587 513L626 511L665 512L704 519L743 500L783 525L822 506L861 526L900 505L900 601L861 601L822 601L783 601L743 601L704 601L665 601L626 601L587 601L548 601L509 601L470 601L430 601L391 601L352 601L313 601L274 601L235 601L196 601L157 601L117 601L78 601L39 601L0 601Z" fill="#f5730a"></path></svg>