<?xml version="1.0" encoding="UTF-8" standalone="no"?>
<svg
   id="svg"
   version="1.1"
   width="366.37253"
   height="109.15623"
   viewBox="0 0 366.37253 109.15623"
   sodipodi:docname="image2vector.svg"
   inkscape:version="1.2.2 (b0a8486541, 2022-12-01)"
   xmlns:inkscape="http://www.inkscape.org/namespaces/inkscape"
   xmlns:sodipodi="http://sodipodi.sourceforge.net/DTD/sodipodi-0.dtd"
   xmlns="http://www.w3.org/2000/svg"
   xmlns:svg="http://www.w3.org/2000/svg">
  <defs
     id="defs210" />
  <sodipodi:namedview
     id="namedview208"
     pagecolor="#ffffff"
     bordercolor="#000000"
     borderopacity="0.25"
     inkscape:showpageshadow="2"
     inkscape:pageopacity="0.0"
     inkscape:pagecheckerboard="0"
     inkscape:deskcolor="#d1d1d1"
     showgrid="false"
     inkscape:zoom="2.5489978"
     inkscape:cx="199.88248"
     inkscape:cy="46.685014"
     inkscape:window-width="1910"
     inkscape:window-height="1009"
     inkscape:window-x="0"
     inkscape:window-y="35"
     inkscape:window-maximized="1"
     inkscape:current-layer="svgg" />
  <g
     id="svgg"
     transform="translate(-5.4507235,-25.954189)">
    <path
       id="path0"
       d="m 19.716351,26.35819 c -0.269,0.287 -0.448,0.805 -0.618,1.791 -0.131,0.764 -0.453,1.838 -0.716,2.388 -0.585,1.223 -0.785,1.984 -0.918,3.5 -0.187,2.12 -0.457,3.485 -0.94,4.75 -0.53,1.392 -0.85,2.787 -1.238,5.403 -0.144,0.967 -0.455,2.266 -0.692,2.886 -0.236,0.621 -0.719,2.573 -1.073,4.339 -0.388,1.939 -0.812001,3.569 -1.070001,4.113 -0.291,0.617 -0.532,1.627 -0.761,3.205 -0.501,3.437003 -0.752,4.480003 -1.318,5.469003 -0.4509996,0.788 -0.5329996,1.137 -0.6759996,2.866 -0.1642449,2.260464 -0.6134925,2.991216 -1.493,6.428 -0.06129,0.401271 -0.029126,1.583832 -0.029126,1.583832 0.628,1.098 0.8621318,0.679833 2.5941256,0.788168 1.771985,-0.04445 3.00318,0.04207 3.00318,0.04207 0,0 -0.562029,1.615164 -0.736179,2.76993 -0.342489,2.312736 -1.047242,4.304342 -1.343001,6.317 -0.364,2.515 -0.825,4.313 -1.393,5.435 -0.298,0.588 -0.4719992,1.388 -0.6769992,3.115 -0.358,3.021 -0.656,4.294 -1.251,5.348 -0.52,0.923 -0.716,1.866997 -1.0140001,4.890997 -0.201,2.041 -0.66,3.828 -1.072,4.17 -1.148,0.953 -1.096,6.56501 0.059,6.23901 0.244,-0.068 5.7319993,-0.155 12.1960003,-0.192 l 11.753,-0.067 0.523,-1.033 c 0.288,-0.568 0.615,-1.332 0.728,-1.699 0.113,-0.367 0.335,-0.92901 0.494,-1.25001 0.33,-0.666 0.891,-3.251 1.154,-5.319 0.215,-1.685 1.498,-4.213 2.584,-5.089997 l 0.629,-0.508 0.496,0.584 c 0.273,0.32 0.751,1.083997 1.062,1.695997 0.311,0.612 0.644,1.16 0.739,1.219 0.395,0.244 0.844,1.494 1.223,3.407 0.317,1.597 0.493,2.128 0.822,2.48 0.611,0.653 0.89,1.304 1.111,2.59101 0.229,1.342 0.528,1.867 1.146,2.018 0.248,0.06 0.721,0.286 1.052,0.502 l 0.601,0.394 13.445,0.042 c 8.057,0.025 13.505,-0.02 13.595,-0.112 0.083,-0.085 0.297,-0.529 0.477,-0.987 l 0.326,-0.834 -0.375,-0.666 c -0.206,-0.367 -0.55,-1.30501 -0.765,-2.08401 -0.215,-0.779 -0.596,-1.716 -0.848,-2.083 -0.251,-0.367 -0.696,-1.451 -0.989,-2.409 -0.293,-0.958 -0.743,-2.032 -1,-2.387 -0.454,-0.627 -0.622,-1.065 -1.247,-3.261997 -0.166,-0.582 -0.513,-1.324 -0.771,-1.649 -0.496,-0.625 -0.914,-1.802 -1.081,-3.043 -0.116,-0.865 -0.412,-1.509 -1.072,-2.333 -0.295,-0.368 -0.566,-1.016 -0.732,-1.75 -0.422,-1.867 -0.775,-2.806 -1.173,-3.119 -0.485,-0.381 -0.821,-1.256 -1.076,-2.798 -0.231,-1.403 -0.349,-1.686 -1.02,-2.459 -0.451,-0.519 -0.592,-0.91 -1.226,-3.397 l -0.281,-1.107 c 0.52553,-0.895259 -2.43967,-0.584536 -3.778441,-0.6512 0,0 0.519736,-1.080746 1.100441,-2.0308 0.198,-0.333 0.542,-0.98 0.764,-1.438 0.411,-0.846 0.901,-1.393 1.547,-1.726 0.196,-0.1 0.503,-0.466 0.682,-0.812 0.189,-0.367 0.596,-0.781 0.976,-0.994 0.367,-0.205 0.838,-0.676 1.078,-1.079 0.268,-0.451 0.667,-0.832 1.083,-1.033 0.443,-0.214 0.756,-0.525 0.958,-0.951 0.212,-0.448 0.516,-0.738 1.034,-0.989 0.404,-0.195 0.78,-0.501 0.836,-0.678 0.162,-0.509 0.862,-1.26 1.371,-1.471 0.275,-0.114 0.624,-0.494 0.858,-0.934 0.271,-0.513 0.591,-0.834 1.032,-1.038 0.373,-0.173 0.718,-0.486 0.832,-0.754 0.227,-0.536 1.223,-1.458 1.574,-1.458 0.133,0 0.345,-0.247 0.471,-0.549 0.248,-0.594003 1.155,-1.451003 1.535,-1.451003 0.128,0 0.383,-0.293 0.566,-0.651 0.347,-0.682 1.062,-1.349 1.443,-1.349 0.124,0 0.368,-0.281 0.544,-0.625 0.377,-0.74 0.769,-1.121 1.399,-1.36 0.256,-0.098 0.539,-0.381 0.636,-0.637 0.244,-0.641 0.642,-1.051 1.285,-1.323 0.301,-0.128 0.593,-0.361 0.647,-0.519 0.089,-0.257 0.702,-1.631 0.844,-1.89 0.165,-0.303 -1.642,-0.344 -14.124,-0.324 -15.459,0.025 -14.356,-0.048 -15.591,1.032 -0.515,0.451 -1.192,0.927 -1.506,1.058 -0.313,0.131 -0.569,0.344 -0.569,0.474 0,0.392 -0.659,1.103 -1.349,1.455 -0.358,0.183 -0.651,0.418 -0.651,0.522 0,0.372 -0.888,1.343 -1.439,1.574 -0.309,0.129 -0.561,0.345 -0.561,0.481 0,0.319 -1.099,1.538 -1.501,1.665 -0.169,0.054 -0.535,0.453 -0.813,0.886 -0.278,0.434 -0.736,1.009003 -1.017,1.279003 l -0.512,0.49 -0.57,-0.307 c -0.829,-0.447 -1.088,-1.130003 -1.086,-2.873003 10e-4,-2.714 0.671,-5.902 1.411,-6.719 0.305,-0.338 0.681,-2.43 0.828,-4.614 0.126,-1.875 0.458,-3.196 1.082,-4.299 0.569,-1.008 0.598,-1.146 0.923,-4.358 0.278,-2.741 0.503,-3.69 1.134,-4.775 0.76,-1.305 1.207,-4.632 0.723,-5.371 l -0.277,-0.422 h -12.3 -12.301 l -0.379,0.404 m 220.626989,-0.281 c -1.209,0.076 -1.238,0.119 -1.816,2.617 -0.266,1.149 -0.606,2.372 -0.755,2.717 -0.442,1.019 -0.885,2.838 -1.16,4.76 -0.141,0.99 -0.485,2.447 -0.764,3.239 -0.283,0.801 -0.763,2.882 -1.083,4.696 -0.431,2.439 -0.682,3.447 -1.001,4.011 -0.313,0.556 -0.508,1.322 -0.741,2.916 -0.39,2.668 -0.886,4.628 -1.392,5.504 -0.275,0.476 -0.443,1.167 -0.587,2.417003 -0.317,2.736 -0.819,4.994 -1.334,5.998 -0.655,1.277 -0.654,1.271 -0.924,3.964 -0.134,1.325 -0.365,2.896 -0.514,3.49 l -0.271,1.082 0.704,0.717 c 0.554,0.565 0.866,0.741 1.471,0.832 0.959,0.144 2.4593,0.155876 3.43693,0.364218 0.0107,0.833996 -0.32171,1.776177 -0.40893,2.550782 -0.23817,2.115239 -0.87,6.427 -1.59,7.849 -0.299,0.59 -0.471,1.373 -0.663,3.017 -0.338,2.891 -0.648,4.183 -1.265,5.277 -0.412,0.73 -0.547,1.249 -0.739,2.834 -0.556,4.600997 -0.639,4.935997 -1.65,6.675997 -0.237,0.408 -0.437,1.697 -0.758,4.878 -0.098,0.979 -0.289,2.15001 -0.423,2.60301 -0.239,0.802 -0.232,0.851 0.234,1.88 l 0.48,1.056 10.562,-0.048 c 10.81,-0.049 11.98,-0.113 12.514,-0.686 1.138,-1.222 3.61,-1.467 8.091,-0.803 5.404,0.8 12.566,0.312 15.495,-1.057 0.755,-0.352 1.45,-0.641 1.545,-0.641 0.555,0 2.613,-0.90301 3.199,-1.40501 0.424,-0.363 1.139,-0.73 1.869,-0.96 0.955,-0.301 1.381,-0.557 2.214,-1.331 0.567,-0.527 1.223,-1.007 1.458,-1.066 0.235,-0.059 0.427,-0.181 0.427,-0.272 0,-0.381 0.765,-1.193 1.387,-1.471 0.492,-0.221 0.761,-0.49 1.016,-1.021 0.213,-0.443 0.62,-0.902 1.055,-1.192 0.39,-0.259 0.709,-0.576 0.709,-0.706 0,-0.13 0.434,-0.691 0.965,-1.247 0.746,-0.781997 1.069,-1.290997 1.425,-2.247997 0.318,-0.856 0.63,-1.38 1.012,-1.701 0.401,-0.336 0.656,-0.783 0.931,-1.63 0.466,-1.435 0.76,-2.044 1.249,-2.583 0.212,-0.235 0.594,-1.152 0.873,-2.101 0.303,-1.032 0.731,-2.041 1.104,-2.602 0.539,-0.811 0.638,-1.13 0.85,-2.733 0.274,-2.067 0.77,-3.823 1.255,-4.439 1.254,-1.594 0.888,-3.29 -0.71,-3.295 -2.466,-0.008 -4.98293,-0.179744 -4.98293,-0.179744 l 0.11193,-2.567256 -0.108,-5.333 c -0.109,-5.369 -0.241,-6.62 -0.853,-8.083 -0.134,-0.321 -0.415,-1.285 -0.623,-2.143003 -0.306,-1.26 -0.482,-1.663 -0.921,-2.101 -0.533,-0.533 -0.992,-1.403 -1.41,-2.669 -0.117,-0.353 -0.484,-0.916 -0.815,-1.25 -0.332,-0.334 -0.753,-0.859 -0.937,-1.166 -0.351,-0.589 -0.404,-0.627 -1.559,-1.104 -0.4,-0.166 -0.836,-0.467 -0.969,-0.67 -0.272,-0.416 -1.017,-0.749 -2.574,-1.151 -0.585,-0.151 -1.561,-0.535 -2.169,-0.854 -2.339,-1.226 -9.627,-1.272 -11.611,-0.073 -0.974,0.589 -1.534,0.763 -3.534,1.101 -0.871,0.147 -1.823,0.408 -2.116,0.579 l -0.532,0.312 -0.582,-0.644 c -0.32,-0.354 -0.655,-0.909 -0.744,-1.233 -0.363,-1.315 0.543,-5.545 1.286,-6.005 0.199,-0.122 0.303,-0.728 0.603,-3.513 0.318,-2.961 0.5,-3.745 1.178,-5.083 0.904,-1.785 1.363,-5.92 0.731,-6.593 l -0.382,-0.407 -11.263,0.032 c -6.194,0.017 -11.688,0.058 -12.207,0.091 m -131.639,20.732 c -1.237,0.076 -3.225,0.328 -4.417,0.559 -1.191,0.231 -3.47899,0.573 -5.082994,0.76 -6.031995,0.704 -6.406995,0.771 -7.358995,1.306 -0.749,0.421 -2.412,0.945 -4.509,1.42 -0.291,0.067 -0.543,0.296 -0.71,0.648 -0.142,0.3 -0.547,0.894 -0.899,1.321 -0.617,0.746 -0.652,0.855 -0.924,2.911 -0.379,2.866 -0.874,4.920003 -1.355,5.629003 -0.774,1.141 -1.262,5.702 -0.727,6.804 l 0.342,0.704 0.945,-0.054 c 0.52,-0.03 1.251,-0.199 1.624,-0.375 0.372,-0.177 0.768,-0.321 0.879,-0.321 0.535,0 2.099,-0.703 2.69,-1.209 0.481,-0.412 1.11,-0.698 2.291,-1.042 1.181,-0.344 1.798,-0.624 2.244,-1.019 0.757998,-0.672 1.252998,-0.804 4.282995,-1.145 1.319,-0.148 2.706004,-0.383 3.083004,-0.523 1.91499,-0.708 2.17999,-0.754 3.94099,-0.689 1.471,0.055 1.905,0.137 2.667,0.504 0.501,0.241 1.436,0.588 2.078,0.772 2.538,0.728 3.759,3.476 2.039,4.587 -1.657,1.069 -3.997,1.784 -6.604,2.016 -6.735994,0.6 -7.264209,0.922881 -8.849991,1.349 -1.060768,0.259419 -1.869945,0.381205 -2.509945,0.528205 -2.970808,0.379271 -5.840013,0.853172 -8.472933,1.33135 -0.923427,0.957265 -1.53504,1.992408 -1.39804,3.148408 0.05474,0.840124 0.12883,0.833822 0.11333,3.235986 2.230093,0.304831 4.90879,0.373378 6.565666,0.400031 -0.499272,0.901212 -1.602197,4.539182 -1.808197,4.760182 -0.206,0.222 -0.442714,0.747469 -0.790661,1.209627 -0.195251,0.259341 -0.763093,1.040481 -0.931093,1.419481 -0.167,0.379 -0.440979,0.420247 -1.050199,1.378967 -0.665159,1.256109 -0.474742,1.723703 -1.2461,3.055879 0.0015,1.228486 -0.325471,2.440415 -0.674852,3.535474 -0.141,1.056 -0.375,2.705 -0.521,3.666 -0.549,3.623997 0.42689,5.982507 1.62789,6.777507 0.375,0.248 0.803,0.749 1.04,1.217 0.282,0.555 0.585,0.881 1.011,1.083 0.334,0.158 0.751,0.53 0.925,0.825 0.218,0.37 0.593,0.649 1.209,0.899 0.491,0.19901 1.069,0.55101 1.285,0.78201 0.604,0.647 1.367,0.97 3.809,1.608 1.238,0.324 2.694,0.712 3.236,0.864 1.43,0.399 4.898135,0.5419 6.162125,0.1099 2.79368,0.82458 3.86245,0.11502 6.414,0.086 0.734,0.329 -0.0849,0.17184 11.04107,0.15084 l 3.72879,-0.40103 2.32552,-0.63598 c 0.229,-0.213 2.68956,-1.26468 3.07556,-1.50368 0.2399,-0.6488 1.39102,-1.40561 2.06296,-2.86788 0.73979,-1.23798 1.40972,-3.30019 1.90672,-4.03019 0.60722,-1.32535 1.54966,-3.37002 2.03445,-4.416146 0.6802,-1.560894 1.11987,-2.73597 1.86195,-4.298906 0.48741,-1.4749 0.67851,-2.069807 0.94352,-3.492273 0.21422,-1.149791 0.41299,-1.835099 0.58667,-2.783832 0.491,-1.237 0.62304,-1.313915 1.02005,-3.957915 0.149,-0.99 0.77101,-1.151887 1.14601,-2.057887 0.554,-1.34 0.93561,-2.607998 0.67461,-2.798998 -0.367,-0.267 -1.27191,-0.365626 -2.08891,-0.366626 -0.90617,0.03769 -1.02794,-0.0099 -3.82548,-0.112435 -0.0493,-0.940402 1.58676,-7.007046 1.93951,-10.699049 0.508,-5.175 0.527,-5.856 0.223,-8.167 -0.522,-3.969003 -0.649,-4.439003 -1.336,-4.928003 -0.27,-0.193 -0.74,-0.738 -1.044,-1.211 -0.561,-0.874 -2.642,-2.944 -2.959,-2.944 -0.096,0 -0.469,-0.299 -0.83,-0.663 -0.446,-0.451 -0.94,-0.745 -1.544,-0.921 -0.48901,-0.142 -1.25101,-0.5 -1.69301,-0.796 -1.304,-0.87 -1.421,-0.915 -3.16399,-1.204 -2.199,-0.365 -3.37001,-0.698 -4.095,-1.165 -1.13801,-0.733 -7.01901,-0.976 -13.655,-0.563 m 91.418,0.007 c -0.733,0.084 -1.821,0.327 -2.417,0.542 -0.596,0.215 -1.87201,0.554 -2.834,0.755 -3.105,0.647 -3.90701,0.885 -4.417,1.309 -1.47101,1.223 -3.939,1.214 -5.21701,-0.02 l -0.55099,-0.531 -11.19901,-0.053 c -13.449,-0.063 -13.104,-0.085 -13.58099,0.855 -0.195,0.384 -0.46701,0.885 -0.60301,1.114 -0.876,1.475 -1.125,2.288 -1.42599,4.658 -0.37101,2.922 -0.701,4.255003 -1.367,5.535003 -0.403,0.775 -0.534,1.303 -0.667,2.678 -0.332,3.442 -0.74275,5.092504 -1.34975,6.318504 -0.68701,1.387 -1.004,3.06 -0.865,4.556 0.127,1.354 4.63709,1.398776 4.63709,1.398776 0,0 -0.26019,1.299174 -0.44489,2.426387 -0.34794,3.365396 -0.3882,6.828837 -1.40321,8.934837 -0.38999,0.808 -0.41225,1.208496 -0.62625,2.994496 -0.348,2.909 -0.651,4.194 -1.237,5.238 -0.595,1.061 -0.622,1.18 -0.934,4.196 -0.28899,2.788997 -0.585,4.026997 -1.18,4.939997 -0.719,1.105 -1.383,6.69601 -0.994,8.37101 0.25,1.077 0.48,1.318 1.09101,1.145 0.22999,-0.065 5.30299,-0.135 11.274,-0.157 l 10.857,-0.038 0.71,-0.514 c 0.38999,-0.283 0.802,-0.514 0.915,-0.514 0.41399,0 0.764,-0.871 0.923,-2.298 0.24,-2.15401 0.476,-3.33801 0.852,-4.27701 0.709,-1.772 0.804,-2.143 1.29599,-5.08 0.289,-1.720997 0.677,-3.431997 0.90101,-3.974997 0.217,-0.524 0.63499,-2.303 0.929,-3.953 0.31,-1.739 0.712,-3.421 0.95599,-4 0.232,-0.55 0.55501,-1.788 0.718,-2.75 0.518,-3.052 0.984,-5.013 1.416,-5.957 0.509,-1.112 1.33122,-2.17753 0.20802,-2.457386 -1.38561,-0.345242 -1.79449,-3.39e-4 -5.43815,-0.731852 0.24929,-1.631052 0.7086,-3.900005 1.19313,-5.524762 0.2144,-0.718958 0.715,-1.618 0.879,-2.072 1.179,-3.264 7.515,-3.17 8.494,0.126 0.138,0.464 0.252,1.486 0.253,2.272 10e-4,1.263 0.309,3.045 0.57,3.306 0.051,0.051 0.637,0.14 1.302,0.197 1.76258,-0.03368 2.80901,0.175094 2.80901,0.175094 0,0 -0.13121,1.258257 -0.18001,2.359906 -0.0663,2.017096 -0.449,5.644 -1.246,7.083 -0.488,0.882 -0.694,1.827 -0.925,4.246 -0.225,2.353 -0.475,3.351 -1.131,4.51 -0.606,1.073 -0.633,1.202 -0.945,4.553 -0.263,2.830997 -0.496,3.864997 -1.095,4.873997 -0.546,0.919 -0.646,1.371 -0.914,4.124 -0.134,1.375 -0.329,2.88301 -0.433,3.35101 -0.441,1.976 0.435,3.233 2.114,3.039 0.635,-0.074 5.715,-0.124 11.288,-0.113 l 10.132,0.021 0.451,-0.422 c 0.248,-0.232 0.692,-0.543 0.987,-0.692 0.724,-0.365 0.838,-0.632 1.049,-2.45301 0.298,-2.588 0.663,-4.321 1.082,-5.15 0.513,-1.011 0.865,-2.551 1.077,-4.699 0.158,-1.613997 0.541,-3.165997 1.076,-4.359997 0.128,-0.287 0.51,-1.985 0.848,-3.772 0.359,-1.898 0.777,-3.597 1.005,-4.083 0.228,-0.489 0.533,-1.731 0.736,-3 0.422,-2.64 0.55784,-4.688971 0.96584,-5.385971 0.44148,-2.243628 -0.52323,-2.560043 -1.64559,-2.816953 -1.56169,0.158966 -3.41407,-0.32107 -3.41407,-0.32107 0,0 0.57382,-3.846006 1.11282,-5.810006 0.277,-1.008 0.608,-2.747 0.735,-3.864 0.128,-1.118 0.311,-2.455 0.407,-2.973 0.166,-0.898 0.09,-1.865 -0.428,-5.496003 -0.052,-0.367 -0.341,-1.192 -0.641,-1.833 -0.3,-0.642 -0.76,-1.745 -1.023,-2.451 -0.323,-0.867 -0.604,-1.352 -0.866,-1.494 -0.214,-0.115 -0.629,-0.621 -0.923,-1.124 -0.383,-0.655 -0.776,-1.06 -1.383,-1.423 -0.467,-0.28 -1.027,-0.704 -1.244,-0.944 -0.409,-0.45 -1.227,-0.803 -2.829,-1.221 -0.51,-0.132 -1.371,-0.473 -1.913,-0.757 -1.488,-0.778 -3.407,-0.973 -6.319,-0.641 m 101.96,2.18 c -0.482,0.533 -0.028,9.16 0.556,10.558003 0.615,1.47 1.097,4.836 1.554,10.838 0.0278,5.110419 4.01532,3.712255 7.08911,4.245691 0.49107,3.333344 0.51381,5.351277 0.68881,7.900777 0.245,3.576 0.30108,6.111532 0.87608,7.770532 0.574,1.653 0.905,4.864 1.113,10.811997 0.102,2.94 0.387,5.052 0.836,6.214 0.21,0.541 0.212,0.696 0.014,1.083 -0.127,0.249 -0.317,0.865 -0.422,1.369 -0.385,1.84901 -0.852,2.97801 -1.431,3.45701 -0.308,0.255 -0.749,0.899 -0.991,1.447 -0.239,0.543 -0.689,1.298 -1,1.677 -0.311,0.379 -0.801,1.19 -1.09,1.801 -0.343,0.726 -0.697,1.213 -1.019,1.403 -0.335,0.198 -0.551,0.506 -0.673,0.961 -0.266,0.988 -0.776,1.929 -1.402,2.588 -0.306,0.32 -0.709,0.997 -0.897,1.502 -0.191,0.516 -0.592,1.156 -0.912,1.458 -0.348,0.328 -0.75,0.994 -1.028,1.703 -0.328,0.836 -0.662,1.351 -1.182,1.824 -0.399,0.363 -0.725,0.774 -0.725,0.913 0,0.547 -0.718,2.129 -1.261,2.78 -1.483,1.775 -1.804,1.728 12.095,1.788 14.27,0.061 13.952,0.091 14.677,-1.407 0.198,-0.41 0.539,-0.862 0.756,-1.004 0.221,-0.145 0.717,-0.938 1.125,-1.8 0.402,-0.847 0.884,-1.648 1.072,-1.78 0.188,-0.132 0.528,-0.659 0.755,-1.172 0.227,-0.513 0.74,-1.336 1.14,-1.828 0.407,-0.501 0.873,-1.329 1.059,-1.884 0.218,-0.648 0.547,-1.197 0.954,-1.59 0.4,-0.385 0.743,-0.952 0.961,-1.584 0.408,-1.187 0.728,-1.714 1.34,-2.21 0.317,-0.258 0.572,-0.738 0.815,-1.541 0.243,-0.8 0.529,-1.341 0.912,-1.723 0.766,-0.767 1.06,-1.25 1.347,-2.215 0.137,-0.461 0.464,-1.036 0.739,-1.3 0.272,-0.261 0.733,-1.066 1.026,-1.79201 0.322,-0.799 0.745,-1.52 1.074,-1.83 0.318,-0.301 0.732,-0.994 0.999,-1.676 0.268,-0.683 0.7,-1.406 1.047,-1.753 0.324,-0.324 0.76,-1.011 0.968,-1.526 0.208,-0.515 0.618,-1.225 0.911,-1.577 0.294,-0.352 0.771,-1.215 1.06,-1.916997 0.392,-0.951 0.661,-1.361 1.059,-1.609 0.37,-0.232 0.603,-0.562 0.764,-1.084 0.427,-1.381 0.77301,-2.045 1.442,-2.771 0.365,-0.397 0.664,-0.839 0.664,-0.983 0,-0.422 0.497,-1.277 1.172,-2.015 0.34801,-0.381 0.794,-1.144 1.003,-1.715 0.34501,-0.948 0.625,-1.34 1.348,-1.891 0.15,-0.114 0.47001,-0.813 0.712,-1.553 0.337,-1.031 0.594,-1.495 1.102,-1.992 0.365,-0.356 0.664,-0.763 0.665,-0.905 0.003,-0.493 0.835,-2.044 1.503,-2.803 0.398,-0.452 0.747,-1.064 0.857,-1.499 0.102,-0.405 0.364,-0.949 0.582,-1.208 l 0.39601,-0.471 c 0,0 -2.44319,0.331467 -4.8447,-0.170574 1.00876,-2.104948 1.51626,-3.854054 2.71069,-5.614426 0.311,-0.261 0.73701,-0.945 1.068,-1.713 0.344,-0.8 0.766,-1.469 1.126,-1.786 0.327,-0.288 0.717,-0.879 0.903,-1.37 0.181,-0.475 0.632,-1.245 1.002,-1.71 0.37401,-0.469 0.83301,-1.324 1.031,-1.92 0.24901,-0.748 0.524,-1.213 0.907,-1.533 0.334,-0.279 0.791,-0.985 1.162,-1.793 0.336,-0.734 0.828,-1.559003 1.093,-1.834003 0.265,-0.275 0.641,-0.875 0.835,-1.333 0.195,-0.458 0.645,-1.133 1.002,-1.5 0.437,-0.45 0.818,-1.114 1.171,-2.04 0.362,-0.953 0.666,-1.476 0.99,-1.707 0.489,-0.348 1.005,-2.235 0.697,-2.544 -0.147,-0.147 -24.357,-0.18 -24.737,-0.034 -0.59,0.226 -2.137,1.931 -2.507,2.762 -0.219,0.493 -0.666,1.215 -0.993,1.604 -0.364,0.432 -0.763,1.214 -1.029,2.013 -0.302,0.906 -0.606,1.471 -0.994,1.847 -0.396,0.384 -0.697,0.954 -1.037,1.962003 -0.344,1.02 -0.626,1.551 -0.999,1.88 -0.374,0.33 -0.65,0.851 -0.985,1.858 -0.348,1.049 -0.617,1.545 -1.075,1.982 -0.424,0.406 -0.701,0.888 -0.91,1.584 -0.41,1.365 -0.829,2.147 -1.325,2.472 -0.23,0.151 -0.576,0.631 -0.768,1.068 -1.149,2.6 -2.409,2.247 -3.468,-0.973 -0.767,-2.332 -0.823,-2.7 -1.111,-7.317 -0.145,-2.338 -0.37,-4.925003 -0.498,-5.750003 -0.129,-0.825 -0.285,-2.322 -0.347,-3.327 -0.133,-2.14 -0.697,-3.48 -1.545,-3.666 -1.304,-0.287 -25.054,-0.175 -25.32,0.118 m -40.886,18.630003 c 2.506,0.439 4.03297,2.35464 4.03597,4.79664 10e-4,1.287 -0.44054,2.526057 1.34988,2.731359 3.93725,0.451473 5.60086,0.511662 5.60086,0.511662 l -0.0467,1.966487 -0.17701,1.856852 c -0.879,4.222 -1.115,4.938 -1.763,5.342 -0.208,0.13 -0.486,0.716 -0.75,1.582 -0.318,1.041 -0.591,1.569 -1.123,2.168 -0.386,0.436 -0.847,1.115 -1.023,1.507 -0.209,0.466 -0.544,0.848 -0.963,1.098 -0.387,0.231 -0.79,0.67 -1.013,1.105 -0.227,0.444 -0.592,0.838 -0.948,1.024 -0.318,0.167 -0.748,0.52 -0.955,0.785 -1.105,1.411 -5.834,1.517 -6.79,0.151 -0.607,-0.867 -0.184,-4.391 0.816,-6.79 0.23,-0.552 0.501,-1.795 0.673,-3.09 0.352,-2.654 0.81,-4.515 1.262,-5.132 1.193,-1.625 0.0579,-1.833573 -1.98108,-2.086573 -1.429,-0.177 -2.41755,-0.02686 -3.43648,-0.229276 -0.0422,-0.821504 0.0781,-1.758148 0.0997,-2.574731 0.13741,-2.055502 0.4879,-4.87242 1.3679,-5.60842 0.914,-0.765 3.523,-1.564 4.439,-1.359 0.137,0.031 0.734,0.141 1.325,0.245 m -146.543,17.077 c 1.01262,0.610632 1.14837,3.382996 1.09055,4.351326 -0.284,4.765 -0.59467,5.224279 -1.24467,6.062279 -0.94845,1.123224 -1.72206,1.989816 -2.97957,3.06224 -2.85333,1.405727 -3.06631,1.719155 -5.43631,-0.126845 -0.422,-0.329 -0.837,-0.598 -0.922,-0.598 -0.568,0 -2.75399,-2.71 -2.80999,-3.481 -0.122,-1.718 -0.4435,-3.26143 0.0735,-3.72943 0.173,-0.157 0.25112,-1.012751 0.5299,-2.30108 0.627,-1.283 1.03605,-1.063925 2.01407,-3.090057 2.24208,-1.831842 1.58426,-1.51741 4.37284,-1.461335 3.02153,0.210007 2.68322,0.02628 4.35182,0.442597"
       stroke="none"
       fill="#080808"
       fill-rule="evenodd"
       sodipodi:nodetypes="cccccccccccccccccccccccccccscccccsccccccccccccscsccccccccccccccccccccccscccscscscccccccccscscscccccccccccccccccccccccsscsccccccscccccccccccccscccsscccscccccccccccccccccccccscccccccccccccccccccccccccccscscccccccccccccccscccccccccccccccccccccccsccccccccccsccccsccscsccccscccccccccccccccccsscccccccccscccsccccccccccccccccccsccccccccccscccccccccccccccccccscccccccsscccccssccccccccccccsscccccscccccccccccccscccscsccccccccccsccccccsccccccccscccccccccccccccccccccccccsccccccc"
       inkscape:export-filename="../Desktop/logo-white.svg"
       inkscape:export-xdpi="96"
       inkscape:export-ydpi="96"
       style="fill:#000000" />
  </g>
  <circle
     id="path365"
     style="fill:#ffffff;stroke:#000000"
     cx="2.0039654"
     cy="22.718088"
     r="0.093604267" />
  <circle
     id="path367"
     style="fill:#ffffff;stroke:#000000"
     cx="5.9261856"
     cy="22.82691"
     r="0.093604267" />
</svg>
