<?xml version="1.0" encoding="UTF-8" standalone="no"?>
<!-- Created with Inkscape (http://www.inkscape.org/) -->

<svg
   width="87.906265mm"
   height="87.905746mm"
   viewBox="0 0 87.906265 87.905746"
   version="1.1"
   id="svg5"
   xmlns="http://www.w3.org/2000/svg"
   xmlns:svg="http://www.w3.org/2000/svg">
  <defs
     id="defs2" />
  <g
     id="layer1"
     transform="translate(-28.810645,-60.7689)">
    <path
       id="rect61"
       style="fill:#ffffff;stroke-width:0.264583"
       d="m 72.764034,60.768901 c -4.898875,0 -8.842871,3.943479 -8.842871,8.842354 V 95.878902 H 37.653516 c -4.898876,0 -8.842871,3.943996 -8.842871,8.842868 0,4.89888 3.943995,8.84287 8.842871,8.84287 h 26.267647 v 26.26765 c 0,4.89888 3.943996,8.84236 8.842871,8.84236 4.898875,0 8.842871,-3.94348 8.842871,-8.84236 v -26.26765 h 26.267645 c 4.89888,0 8.84236,-3.94399 8.84236,-8.84287 0,-4.898872 -3.94348,-8.842868 -8.84236,-8.842868 H 81.606905 V 69.611255 c 0,-4.898875 -3.943996,-8.842354 -8.842871,-8.842354 z" />
  </g>
</svg>
