<?xml version="1.0" encoding="UTF-8" standalone="no"?>
<!-- Created with Inkscape (http://www.inkscape.org/) -->

<svg
   width="86.342979mm"
   height="108.55669mm"
   viewBox="0 0 86.342979 108.55669"
   version="1.1"
   id="svg5"
   xmlns:inkscape="http://www.inkscape.org/namespaces/inkscape"
   xmlns:sodipodi="http://sodipodi.sourceforge.net/DTD/sodipodi-0.dtd"
   xmlns="http://www.w3.org/2000/svg"
   xmlns:svg="http://www.w3.org/2000/svg">
  <sodipodi:namedview
     id="namedview7"
     pagecolor="#ffffff"
     bordercolor="#000000"
     borderopacity="0.25"
     inkscape:showpageshadow="2"
     inkscape:pageopacity="0.0"
     inkscape:pagecheckerboard="0"
     inkscape:deskcolor="#d1d1d1"
     inkscape:document-units="mm"
     showgrid="false" />
  <defs
     id="defs2" />
  <g
     inkscape:label="Layer 1"
     inkscape:groupmode="layer"
     id="layer1"
     style="fill:#ffffff"
     transform="translate(-22.32705,-26.790553)">
    <path
       id="rect6117"
       style="fill:none;stroke:#000000;stroke-width:5;stroke-linecap:round;stroke-linejoin:bevel;stroke-dasharray:none"
       d="m 43.338671,49.790645 h 44.215237 c 4.372373,0 8.375709,-0.346294 7.892378,5.091238 l -6.054304,68.111627 c -0.48333,5.43752 -3.520005,9.85373 -7.892378,9.85373 h -32.10762 c -4.37238,0 -7.40913,-4.4162 -7.892382,-9.85373 L 35.446288,54.881883 c -0.483253,-5.437539 3.520002,-5.091238 7.892383,-5.091238 z"
       sodipodi:nodetypes="sssssssss" />
    <path
       style="fill:none;stroke:#000000;stroke-width:4.99999;stroke-linecap:round;stroke-linejoin:bevel;stroke-dasharray:none"
       d="m 47.373485,63.211595 4.651384,53.206025"
       id="path6122"
       sodipodi:nodetypes="cc" />
    <path
       style="fill:none;stroke:#000000;stroke-width:4.99999;stroke-linecap:round;stroke-linejoin:bevel;stroke-dasharray:none"
       d="M 66.026946,63.033399 V 116.02976"
       id="path6126"
       sodipodi:nodetypes="cc" />
    <path
       style="fill:none;stroke:#000000;stroke-width:4.99999;stroke-linecap:round;stroke-linejoin:bevel;stroke-dasharray:none"
       d="M 84.076905,63.392122 80.241308,117.73646"
       id="path6130"
       sodipodi:nodetypes="cc" />
    <path
       id="rect8316"
       style="fill:none;stroke:#000000;stroke-width:4.99999;stroke-linecap:round;stroke-linejoin:bevel"
       d="m 36.688536,39.08813 60.632217,0.09124 c 4.064267,0.0061 6.840057,2.77491 8.097077,4.65376 1.56524,2.339535 0.30665,9.995032 -0.38688,12.648904 -0.6071,2.323113 -8.025419,0.634502 -8.025419,0.634502 0,0 2.728572,-9.181814 1.035708,-9.192619 L 33.904371,47.514525 c -2.369747,-0.01513 -0.536337,9.930273 -0.536337,9.930273 0,0 -6.827529,1.461746 -7.77698,-0.809526 -1.407683,-3.36745 -0.704767,-10.434126 1.064774,-13.81568 1.769541,-3.381554 5.968446,-3.737578 10.032708,-3.731462 z"
       sodipodi:nodetypes="sssscsscszs" />
    <rect
       style="fill:none;stroke:#000000;stroke-width:4.99999;stroke-linecap:round;stroke-linejoin:bevel;stroke-dasharray:none"
       id="rect9049"
       width="22.110287"
       height="9.6155806"
       x="53.66991"
       y="29.29055"
       rx="1.0586607"
       ry="4.8077903" />
  </g>
</svg>
